<?xml version="1.0" encoding="utf-8"?>
<!-- Generator: Adobe Illustrator 24.0.1, SVG Export Plug-In . SVG Version: 6.00 Build 0)  -->
<svg version="1.1" id="Layer_1" xmlns="http://www.w3.org/2000/svg" xmlns:xlink="http://www.w3.org/1999/xlink" x="0px" y="0px"
	 width="70.4px" height="31px" viewBox="0 0 70.4 31" style="enable-background:new 0 0 70.4 31;" xml:space="preserve">
<style type="text/css">
	.st0{fill:#3489F8;}
</style>
<path class="st0" d="M68.5,0H16.6c-0.5,0-1,0.2-1.3,0.5L0.6,14.3c-0.7,0.7-0.7,1.8,0,2.5l14.7,13.7c0.4,0.3,0.8,0.5,1.3,0.5h51.9
	c1,0,1.9-0.8,1.9-1.8V1.8C70.4,0.8,69.5,0,68.5,0z M20.3,18.5c-1.7,1.7-4.3,1.7-6,0c-1.7-1.7-1.7-4.3,0-6c1.7-1.7,4.3-1.7,6,0
	C22,14.2,22,16.9,20.3,18.5z"/>
</svg>
